:SAMPLES-PER-SECOND 30
:FULLY-SPECIFIED
:DEGREES
17
root  77.5978 40.3713 17.4297 166.271 -87.8644 -164.819
RightUpLeg  -2.14737 -6.28363 -2.23767
RightLeg  3.26978 -3.44279 3.7362
RightFoot  -2.52787 0.249844 -3.49735
RightToes  2.32829e-010 0 -3.6325e-017
Spine  2.93314 -0.279787 1.52285
Spine1  0.603539 -0.112033 -0.933183
HEad  -3.92355 4.57625 0.14853
LeftShoulder1  0.622366 0.234104 -11.7042
LeftArm  -36.9365 19.8015 -30.8382
LeftForeArm  -5.98388 -40.1382 -9.80124
LeftHand  -0.244104 0.0205437 5.32207
RightShoulder  0.477221 -0.550045 8.73501
RightArm  -19.4292 -3.35768 3.05328
RightForeArm  5.65606 0.245359 2.69428
RightHand  -1.11218 4.4446 -13.3519
LeftUpLeg  -1.45769 5.16788 2.33005
LeftLeg  2.35366 13.8553 -4.36089
LeftFoot  -3.22255 -0.0996152 1.7469
LeftToes  -1.53708e-010 -3.96652e-011 -3.29181e-011
18
root  77.5792 40.372 17.4294 167.29 -87.9089 -165.801
RightUpLeg  -2.1676 -6.3228 -2.28877
RightLeg  3.29763 -3.44229 3.74075
RightFoot  -2.57791 0.248063 -3.48351
RightToes  2.32829e-010 0 -3.6325e-017
Spine  2.81007 -0.311386 1.40849
Spine1  0.733068 -0.160051 -0.851219
HEad  -4.01609 4.51922 0.15436
LeftShoulder1  0.621902 0.239687 -11.7237
LeftArm  -39.0947 19.8137 -30.8807
LeftForeArm  -7.31355 -40.0036 -9.83375
LeftHand  -0.244104 0.0205437 5.32207
RightShoulder  0.473383 -0.582225 8.78683
RightArm  -19.4387 -3.26326 3.07491
RightForeArm  5.71012 0.200385 2.69385
RightHand  -1.13306 4.59127 -13.4048
LeftUpLeg  -1.43316 5.1303 2.27683
LeftLeg  2.26752 13.8657 -4.3812
LeftFoot  -3.21016 -0.101161 1.77094
LeftToes  -1.53708e-010 -3.96652e-011 -3.29181e-011
19
root  77.5629 40.3726 17.43 168.257 -88.0061 -166.729
RightUpLeg  -2.21807 -6.38101 -2.35909
RightLeg  3.39387 -3.4671 3.74538
RightFoot  -2.64351 0.247531 -3.49057
RightToes  2.32829e-010 0 -3.6325e-017
Spine  2.72379 -0.376329 1.28838
Spine1  0.807138 -0.245924 -0.746105
HEad  -4.51076 5.19842 0.0192034
LeftShoulder1  0.622758 0.247124 -11.7993
LeftArm  -41.2553 19.8761 -30.9205
LeftForeArm  -8.41346 -39.9569 -9.88169
LeftHand  -0.244104 0.0205437 5.32207
RightShoulder  0.484122 -0.527815 8.85842
RightArm  -19.4947 -3.28227 3.05545
RightForeArm  5.67498 0.232461 2.68042
RightHand  -1.12411 4.52568 -13.3861
LeftUpLeg  -1.42317 5.06438 2.20126
LeftLeg  2.18963 13.839 -4.38516
LeftFoot  -3.19322 -0.101422 1.775
LeftToes  -1.53708e-010 -3.96652e-011 -3.29181e-011
20
root  77.5471 40.3732 17.4339 168.523 -88.0702 -166.967
RightUpLeg  -2.25536 -6.41493 -2.39944
RightLeg  3.47687 -3.48094 3.74822
RightFoot  -2.68391 0.246889 -3.49836
RightToes  2.32829e-010 0 -3.6325e-017
Spine  2.66135 -0.470069 1.28645
Spine1  0.87817 -0.339892 -0.758222
HEad  -5.1509 6.29713 -0.195683
LeftShoulder1  0.609747 0.326891 -11.8702
LeftArm  -43.4403 20.0013 -31.0353
LeftForeArm  -9.26544 -40.031 -9.95566
LeftHand  -0.244104 0.0205437 5.32207
RightShoulder  0.537676 -0.23433 9.05747
RightArm  -19.7737 -3.47833 3.03082
RightForeArm  5.70461 0.345896 2.579
RightHand  -1.12586 4.445 -13.5106
LeftUpLeg  -1.43668 5.01467 2.15553
LeftLeg  2.18769 13.8211 -4.35785
LeftFoot  -3.19228 -0.098196 1.72484
LeftToes  -1.53708e-010 -3.96652e-011 -3.29181e-011
21
root  77.5257 40.3735 17.4377 168.978 -88.0138 -167.42
RightUpLeg  -2.23838 -6.4117 -2.41218
RightLeg  3.49858 -3.4164 3.74169
RightFoot  -2.71645 0.242118 -3.44873
RightToes  2.32829e-010 0 -3.6325e-017
Spine  2.53503 -0.538338 1.29478
Spine1  1.16113 -0.412444 -0.752398
HEad  -5.58245 6.9289 -0.494019
LeftShoulder1  0.584255 0.495826 -12.1092
LeftArm  -45.6476 20.1356 -31.1323
LeftForeArm  -9.92862 -40.2073 -10.0535
LeftHand  -0.244104 0.0205437 5.32207
RightShoulder  0.600643 0.0878698 9.37281
RightArm  -20.5015 -3.66933 3.36283
RightForeArm  5.06207 0.693134 2.42993
RightHand  -1.17996 4.49157 -14.0764
LeftUpLeg  -1.39255 5.006 2.14323
LeftLeg  2.17497 13.8908 -4.34864
LeftFoot  -3.2075 -0.0966327 1.70053
LeftToes  -1.53708e-010 -3.96652e-011 -3.29181e-011
